<svg xmlns="http://www.w3.org/2000/svg" xmlns:xlink="http://www.w3.org/1999/xlink" width="500" zoomAndPan="magnify" viewBox="0 0 375 374.999991" height="500" preserveAspectRatio="xMidYMid meet" version="1.0"><defs><clipPath id="df8ad5fa8c"><path d="M 6.1875 12 L 368.4375 12 L 368.4375 362.855469 L 6.1875 362.855469 Z M 6.1875 12 " clip-rule="nonzero"/></clipPath></defs><rect x="-37.5" width="450" fill="#ffffff" y="-37.499999" height="449.999989" fill-opacity="1"/><rect x="-37.5" width="450" fill="#ffffff" y="-37.499999" height="449.999989" fill-opacity="1"/><g clip-path="url(#df8ad5fa8c)"><path fill="#1da0d6" d="M 191.59375 43.039062 C 191.59375 45.402344 189.675781 47.316406 187.3125 47.316406 C 184.949219 47.316406 183.035156 45.402344 183.035156 43.039062 L 183.035156 16.316406 C 183.035156 13.953125 184.949219 12.035156 187.3125 12.035156 C 189.675781 12.035156 191.59375 13.953125 191.59375 16.316406 Z M 281.925781 261.566406 C 290.507812 246 299.09375 238.21875 316.265625 238.21875 C 335.21875 238.21875 350.601562 252.164062 350.601562 269.347656 C 350.601562 300.480469 316.265625 331.613281 281.925781 362.746094 C 247.585938 331.613281 213.246094 300.480469 213.246094 269.347656 C 213.246094 252.164062 228.628906 238.21875 247.585938 238.21875 C 264.753906 238.21875 273.339844 246 281.925781 261.566406 Z M 337.441406 197.476562 C 335.078125 197.476562 333.164062 195.5625 333.164062 193.199219 C 333.164062 190.832031 335.078125 188.917969 337.441406 188.917969 L 364.160156 188.917969 C 366.523438 188.917969 368.4375 190.832031 368.4375 193.199219 C 368.4375 195.5625 366.523438 197.476562 364.160156 197.476562 Z M 319.46875 121.8125 C 317.429688 122.996094 314.816406 122.296875 313.636719 120.257812 C 312.453125 118.21875 313.148438 115.605469 315.191406 114.421875 L 338.328125 101.0625 C 340.367188 99.878906 342.980469 100.574219 344.160156 102.617188 C 345.34375 104.65625 344.648438 107.269531 342.605469 108.449219 Z M 266.070312 65.28125 C 264.898438 67.320312 262.296875 68.023438 260.257812 66.851562 C 258.21875 65.679688 257.511719 63.074219 258.683594 61.035156 L 272.042969 37.890625 C 273.214844 35.851562 275.820312 35.144531 277.859375 36.320312 C 279.898438 37.492188 280.605469 40.097656 279.429688 42.136719 Z M 37.1875 188.917969 C 39.550781 188.917969 41.464844 190.832031 41.464844 193.195312 C 41.464844 195.558594 39.550781 197.476562 37.1875 197.476562 L 10.46875 197.476562 C 8.105469 197.476562 6.1875 195.558594 6.1875 193.195312 C 6.1875 190.832031 8.105469 188.917969 10.46875 188.917969 Z M 59.4375 114.421875 C 61.480469 115.605469 62.175781 118.21875 60.992188 120.257812 C 59.8125 122.296875 57.199219 122.992188 55.160156 121.8125 L 32.019531 108.449219 C 29.980469 107.269531 29.285156 104.65625 30.464844 102.617188 C 31.648438 100.578125 34.257812 99.878906 36.300781 101.0625 Z M 115.945312 61.015625 C 117.125 63.054688 116.429688 65.667969 114.390625 66.851562 C 112.351562 68.03125 109.738281 67.335938 108.554688 65.296875 L 95.195312 42.152344 C 94.015625 40.113281 94.710938 37.5 96.75 36.316406 C 98.789062 35.136719 101.402344 35.832031 102.585938 37.871094 Z M 115.945312 61.015625 " fill-opacity="1" fill-rule="evenodd"/></g><path fill="#3a4187" d="M 209.304688 251.339844 C 202.285156 248.589844 196.15625 243.9375 191.59375 237.945312 L 191.59375 318.671875 C 196.851562 327.429688 206.4375 333.289062 217.394531 333.289062 C 223.523438 333.289062 229.222656 331.453125 233.976562 328.304688 C 231.972656 326.066406 230.015625 323.800781 228.113281 321.503906 C 216.039062 306.90625 204.6875 288.949219 204.6875 269.347656 C 204.6875 262.726562 206.375 256.648438 209.304688 251.339844 Z M 239.535156 86.269531 C 254.449219 86.269531 266.539062 98.359375 266.539062 113.277344 C 266.539062 115.308594 266.316406 117.285156 265.890625 119.1875 C 256.765625 119.644531 247.378906 124.933594 241.59375 131.890625 C 235.761719 138.898438 232.605469 148.128906 233.5 157.917969 C 233.714844 160.265625 235.785156 161.992188 238.128906 161.78125 C 240.476562 161.566406 242.203125 159.496094 241.992188 157.148438 C 241.308594 149.695312 243.710938 142.667969 248.144531 137.339844 C 252.570312 132.015625 259.027344 128.382812 266.464844 127.695312 C 282.976562 127.808594 296.328125 141.234375 296.328125 157.777344 C 296.328125 163.941406 294.472656 169.675781 291.292969 174.445312 C 299.320312 179.847656 304.601562 189.019531 304.601562 199.425781 C 304.601562 205.089844 303.039062 210.382812 300.320312 214.90625 C 294.339844 211.910156 287.707031 211.269531 281.574219 212.714844 C 274.667969 214.347656 268.378906 218.617188 264.347656 225.140625 C 263.113281 227.144531 263.734375 229.769531 265.734375 231.007812 C 267.738281 232.246094 270.363281 231.625 271.601562 229.621094 C 274.382812 225.121094 278.730469 222.167969 283.511719 221.042969 C 288.289062 219.914062 293.488281 220.59375 297.976562 223.351562 C 300.003906 225.695312 301.601562 228.417969 302.644531 231.402344 C 294.050781 233.84375 287.53125 238.792969 281.921875 245.898438 C 273.679688 235.453125 263.457031 229.660156 247.582031 229.660156 C 234.777344 229.660156 222.546875 235.109375 214.449219 244.121094 C 208.398438 242.207031 203.167969 238.597656 199.253906 233.890625 C 195.117188 228.917969 191.871094 222.648438 191.855469 216.164062 L 191.59375 79.457031 C 196.066406 72.863281 203.617188 68.535156 212.183594 68.535156 C 223.515625 68.535156 233.078125 76.117188 236.074219 86.488281 C 237.207031 86.34375 238.363281 86.269531 239.535156 86.269531 Z M 135.09375 86.269531 C 136.265625 86.269531 137.417969 86.34375 138.550781 86.488281 C 141.550781 76.117188 151.109375 68.53125 162.445312 68.53125 C 171.007812 68.53125 178.5625 72.863281 183.035156 79.453125 L 183.035156 216.164062 C 182.398438 222.816406 179.742188 228.957031 175.636719 233.890625 C 170.300781 240.304688 162.515625 244.6875 153.546875 245.507812 C 151.203125 245.71875 149.472656 247.792969 149.6875 250.136719 C 149.898438 252.484375 151.972656 254.210938 154.316406 254 C 165.6875 252.957031 176.023438 247.296875 183.035156 238.289062 L 183.035156 318.671875 C 177.773438 327.429688 168.1875 333.285156 157.234375 333.285156 C 140.621094 333.285156 127.152344 319.816406 127.152344 303.199219 C 127.152344 302.910156 127.15625 302.621094 127.164062 302.335938 C 123.425781 304.582031 119.050781 305.875 114.371094 305.875 C 100.636719 305.875 89.503906 294.738281 89.503906 281 C 89.503906 274.664062 91.871094 268.882812 95.773438 264.488281 C 95.667969 264.492188 95.5625 264.496094 95.457031 264.496094 C 81.722656 264.496094 70.589844 253.359375 70.589844 239.621094 C 70.589844 233.414062 72.863281 227.738281 76.621094 223.382812 C 81.125 220.597656 86.34375 219.90625 91.136719 221.039062 C 95.917969 222.167969 100.265625 225.117188 103.050781 229.621094 C 104.285156 231.621094 106.914062 232.242188 108.914062 231.007812 C 110.917969 229.769531 111.539062 227.140625 110.300781 225.140625 C 106.269531 218.617188 99.984375 214.34375 93.074219 212.714844 C 86.9375 211.265625 80.296875 211.90625 74.3125 214.914062 C 71.589844 210.390625 70.023438 205.089844 70.023438 199.425781 C 70.023438 189.019531 75.304688 179.847656 83.335938 174.445312 C 80.152344 169.671875 78.296875 163.941406 78.296875 157.777344 C 78.296875 141.230469 91.648438 127.808594 108.160156 127.691406 C 115.597656 128.382812 122.054688 132.015625 126.480469 137.339844 C 130.914062 142.667969 133.316406 149.691406 132.632812 157.148438 C 132.421875 159.492188 134.152344 161.566406 136.496094 161.777344 C 138.839844 161.992188 140.914062 160.261719 141.125 157.917969 C 142.023438 148.125 138.863281 138.894531 133.035156 131.886719 C 127.246094 124.933594 117.863281 119.644531 108.734375 119.1875 C 108.308594 117.285156 108.085938 115.304688 108.085938 113.277344 C 108.085938 98.359375 120.175781 86.265625 135.089844 86.265625 Z M 135.09375 86.269531 " fill-opacity="1" fill-rule="evenodd"/></svg>